<svg xmlns="http://www.w3.org/2000/svg" width="24" height="24" viewBox="0 0 24 24" fill="none" stroke="currentColor" stroke-width="2" stroke-linecap="round" stroke-linejoin="round">
  <path d="M21.81 12.83l.7-.7a2 2 0 0 0 0-2.83l-.7-.7a2 2 0 0 1-.59-1.4V5.75a2 2 0 0 0-2-2h-1.45a2 2 0 0 1-1.41-.59l-.7-.7a2 2 0 0 0-2.83 0l-.7.71c-.38.37-.89.58-1.41.58H8.25a2 2 0 0 0-2 2v1.45c0 .53-.21 1.04-.59 1.41l-.7.7a2 2 0 0 0 0 2.83l.7.7c.38.37.59.88.59 1.41v1.45a2 2 0 0 0 2 2h1.45c.52 0 1.03.21 1.41.59l.7.7a2 2 0 0 0 2.83 0l.7-.7c.38-.38.89-.59 1.41-.59h1.45a2 2 0 0 0 2-2v-1.45c0-.53.21-1.04.59-1.41z" />
  <circle cx="12" cy="12" r="4" />
</svg> 