<svg width="44" height="44" viewBox="0 0 44 44" fill="none" xmlns="http://www.w3.org/2000/svg">
<path d="M22.5587 43.0711L42.3755 22.9289C42.8802 22.4159 42.8802 21.5841 42.3755 21.0711L22.5587 0.928912C22.054 0.415887 21.2356 0.415887 20.7309 0.928911L0.914112 21.0711C0.409376 21.5841 0.409376 22.4159 0.914112 22.9289L20.7309 43.0711C21.2356 43.5841 22.054 43.5841 22.5587 43.0711Z" fill="#F06830"/>
<path d="M28.6034 11.1077L22.5575 4.9626C22.0528 4.44958 21.2345 4.44958 20.7297 4.9626L14.6839 11.1077C14.1791 11.6207 14.1791 12.4525 14.6839 12.9655L20.7297 19.1107C21.2345 19.6237 22.0528 19.6237 22.5575 19.1107L28.6034 12.9655C29.1081 12.4525 29.1081 11.6207 28.6034 11.1077Z" fill="#00235A"/>
<path d="M28.6051 31.0326L22.5593 24.8875C22.0546 24.3745 21.2362 24.3745 20.7315 24.8875L14.6856 31.0326C14.1809 31.5457 14.1809 32.3774 14.6856 32.8905L20.7315 39.0356C21.2362 39.5486 22.0546 39.5486 22.5593 39.0356L28.6051 32.8905C29.1099 32.3775 29.1099 31.5457 28.6051 31.0326Z" fill="#00235A"/>
<path d="M32.3606 29.0733L38.4065 22.9282C38.9112 22.4152 38.9112 21.5834 38.4065 21.0704L32.3606 14.9252C31.8559 14.4122 31.0376 14.4122 30.5328 14.9252L24.487 21.0704C23.9823 21.5834 23.9823 22.4152 24.487 22.9282L30.5328 29.0733C31.0376 29.5863 31.8559 29.5863 32.3606 29.0733Z" fill="#F7F7F7"/>
<path d="M12.7563 29.0748L18.8022 22.9296C19.3069 22.4166 19.3069 21.5848 18.8022 21.0718L12.7563 14.9267C12.2516 14.4137 11.4333 14.4137 10.9285 14.9267L4.88269 21.0718C4.37796 21.5848 4.37796 22.4166 4.88269 22.9296L10.9285 29.0748C11.4333 29.5878 12.2516 29.5878 12.7563 29.0748Z" fill="#F7F7F7"/>
</svg>
