<svg xmlns="http://www.w3.org/2000/svg" fill="none" viewBox="0 0 160 30" height="30" width="160">
<path fill="url(#paint0_linear_72_7404)" d="M34.4326 9.06539H38.0169C40.1909 9.06539 42.0125 10.8282 41.9538 13.061V17.0566C41.9538 19.2306 40.1909 20.9934 38.0169 20.9934H34.4326C32.1411 26.1642 26.9702 29.7484 20.9769 29.7484C14.9835 29.7484 9.8127 26.1054 7.52112 20.9347H3.93683C1.76276 20.9347 0 19.1719 0 16.9978V13.0022C0 10.8282 1.76276 9.06539 3.93683 9.06539H7.52112C9.8127 3.89463 14.9835 0.251587 20.9769 0.251587C26.9702 0.251587 32.1998 3.89463 34.4326 9.06539ZM32.4348 9.06539C30.2607 4.89352 25.9713 2.0731 20.9769 2.0731C16.0411 2.0731 11.693 4.89352 9.57767 9.06539H12.5743C14.7485 9.06539 16.5112 10.8282 16.5112 13.0022V14.0599H25.5013V13.0022C25.5013 10.8282 27.264 9.06539 29.4381 9.06539H32.4348ZM33.1986 19.1131C33.6687 17.8205 33.9038 16.469 33.9038 15.0001C33.9038 13.5311 33.6687 12.1796 33.1986 10.8869H29.4381C28.263 10.8869 27.3228 11.827 27.3228 13.0022V16.9978C27.3228 18.173 28.263 19.1131 29.4381 19.1131H33.1986ZM8.81381 10.8869C8.34373 12.1796 8.1087 13.5311 8.1087 15.0001C8.1087 16.4102 8.34373 17.8205 8.81381 19.1131H12.5743C13.7495 19.1131 14.6897 18.173 14.6897 16.9978V13.0022C14.6897 11.827 13.7495 10.8869 12.5743 10.8869H8.81381ZM1.82152 16.9978C1.82152 18.173 2.76166 19.1131 3.93683 19.1131H6.81601C6.46346 17.8205 6.22843 16.4102 6.22843 15.0001C6.22843 13.5898 6.46346 12.1796 6.81601 10.8869H3.93683C2.76166 10.8869 1.82152 11.827 1.82152 13.0022V16.9978ZM9.51891 20.9347C11.693 25.0478 16.0411 27.8682 20.9769 27.8682C25.9713 27.8682 30.2607 25.1066 32.376 20.9347H29.3793C27.2053 20.9347 25.4426 19.1719 25.4426 16.9978V15.8814H16.4524V16.9978C16.4524 19.1719 14.6897 20.9347 12.5156 20.9347H9.51891ZM38.0169 19.1131C39.192 19.1131 40.1322 18.173 40.1322 16.9978V13.0022C40.1322 11.827 39.192 10.8869 38.0169 10.8869H35.1377C35.4903 12.1796 35.7253 13.5898 35.7253 15.0001C35.7253 16.4102 35.5491 17.8205 35.1377 19.1131H38.0169ZM21.7986 24.5191C21.3285 24.5191 20.9759 24.9305 20.9759 25.4004C20.9759 25.9293 21.446 26.3406 21.9749 26.3406C24.0314 26.1643 25.9705 25.4592 27.6157 24.2841C28.027 23.9315 28.1445 23.3439 27.7919 22.9326C27.4981 22.58 26.9693 22.4625 26.558 22.7563C25.1478 23.7553 23.5025 24.3429 21.7986 24.5191Z" clip-rule="evenodd" fill-rule="evenodd"></path>
<path fill="#FFFFFF" d="M51.7151 18.62L51.6151 16.18L59.5551 8.00001H61.8351L55.6951 14.48L54.5751 15.72L51.7151 18.62ZM49.9551 22V8.00001H51.9551V22H49.9551ZM59.8751 22L54.1351 15.32L55.4751 13.84L62.2151 22H59.8751Z"></path>
<path fill="#FFFFFF" d="M63.5301 22V8.00001H65.1701L74.4301 19.5H73.5701V8.00001H75.5701V22H73.9301L64.6701 10.5H65.5301V22H63.5301Z"></path>
<path fill="#FFFFFF" d="M85.0801 22.16C84.0134 22.16 83.0201 21.98 82.1001 21.62C81.1934 21.26 80.4067 20.76 79.7401 20.12C79.0734 19.4667 78.5534 18.7067 78.1801 17.84C77.8067 16.9733 77.6201 16.0267 77.6201 15C77.6201 13.9733 77.8067 13.0267 78.1801 12.16C78.5534 11.2933 79.0734 10.54 79.7401 9.90001C80.4067 9.24668 81.1934 8.74001 82.1001 8.38001C83.0067 8.02001 84.0001 7.84001 85.0801 7.84001C86.1467 7.84001 87.1267 8.02001 88.0201 8.38001C88.9267 8.72668 89.7134 9.22668 90.3801 9.88001C91.0601 10.52 91.5801 11.2733 91.9401 12.14C92.3134 13.0067 92.5001 13.96 92.5001 15C92.5001 16.04 92.3134 16.9933 91.9401 17.86C91.5801 18.7267 91.0601 19.4867 90.3801 20.14C89.7134 20.78 88.9267 21.28 88.0201 21.64C87.1267 21.9867 86.1467 22.16 85.0801 22.16ZM85.0801 20.38C85.8534 20.38 86.5667 20.2467 87.2201 19.98C87.8867 19.7133 88.4601 19.34 88.9401 18.86C89.4334 18.3667 89.8134 17.7933 90.0801 17.14C90.3601 16.4867 90.5001 15.7733 90.5001 15C90.5001 14.2267 90.3601 13.5133 90.0801 12.86C89.8134 12.2067 89.4334 11.64 88.9401 11.16C88.4601 10.6667 87.8867 10.2867 87.2201 10.02C86.5667 9.75334 85.8534 9.62001 85.0801 9.62001C84.2934 9.62001 83.5667 9.75334 82.9001 10.02C82.2467 10.2867 81.6734 10.6667 81.1801 11.16C80.6867 11.64 80.3001 12.2067 80.0201 12.86C79.7534 13.5133 79.6201 14.2267 79.6201 15C79.6201 15.7733 79.7534 16.4867 80.0201 17.14C80.3001 17.7933 80.6867 18.3667 81.1801 18.86C81.6734 19.34 82.2467 19.7133 82.9001 19.98C83.5667 20.2467 84.2934 20.38 85.0801 20.38Z"></path>
<path fill="#FFFFFF" d="M92.0001 22L97.8201 14.06V15.6L92.3201 8.00001H94.6001L98.9601 13.98L98.0601 14L102.4 8.00001H104.58L99.1201 15.48V14.04L104.94 22H102.64L98.0001 15.62H98.8801L94.3001 22H92.0001Z"></path>
<path fill="#FFFFFF" d="M106.667 22V8.00001H109.907V19.36H116.927V22H106.667Z"></path>
<path fill="#FFFFFF" d="M117.5 22L123.74 8.00001H126.94L133.2 22H129.8L124.68 9.64001H125.96L120.82 22H117.5ZM120.62 19L121.48 16.54H128.68L129.56 19H120.62Z"></path>
<path fill="#FFFFFF" d="M134.128 22V8.00001H140.968C142.728 8.00001 144.048 8.33334 144.928 9.00001C145.821 9.66668 146.268 10.5467 146.268 11.64C146.268 12.3733 146.088 13.0133 145.728 13.56C145.368 14.0933 144.874 14.5067 144.248 14.8C143.621 15.0933 142.901 15.24 142.088 15.24L142.468 14.42C143.348 14.42 144.128 14.5667 144.808 14.86C145.488 15.14 146.014 15.56 146.388 16.12C146.774 16.68 146.968 17.3667 146.968 18.18C146.968 19.38 146.494 20.32 145.548 21C144.601 21.6667 143.208 22 141.368 22H134.128ZM137.348 19.56H141.128C141.968 19.56 142.601 19.4267 143.028 19.16C143.468 18.88 143.688 18.44 143.688 17.84C143.688 17.2533 143.468 16.82 143.028 16.54C142.601 16.2467 141.968 16.1 141.128 16.1H137.108V13.74H140.568C141.354 13.74 141.954 13.6067 142.368 13.34C142.794 13.06 143.008 12.64 143.008 12.08C143.008 11.5333 142.794 11.1267 142.368 10.86C141.954 10.58 141.354 10.44 140.568 10.44H137.348V19.56Z"></path>
<path fill="#FFFFFF" d="M153.2 22.24C152.08 22.24 151.007 22.0933 149.98 21.8C148.953 21.4933 148.127 21.1 147.5 20.62L148.6 18.18C149.2 18.6067 149.907 18.96 150.72 19.24C151.547 19.5067 152.38 19.64 153.22 19.64C153.86 19.64 154.373 19.58 154.76 19.46C155.16 19.3267 155.453 19.1467 155.64 18.92C155.827 18.6933 155.92 18.4333 155.92 18.14C155.92 17.7667 155.773 17.4733 155.48 17.26C155.187 17.0333 154.8 16.8533 154.32 16.72C153.84 16.5733 153.307 16.44 152.72 16.32C152.147 16.1867 151.567 16.0267 150.98 15.84C150.407 15.6533 149.88 15.4133 149.4 15.12C148.92 14.8267 148.527 14.44 148.22 13.96C147.927 13.48 147.78 12.8667 147.78 12.12C147.78 11.32 147.993 10.5933 148.42 9.94001C148.86 9.27334 149.513 8.74668 150.38 8.36001C151.26 7.96001 152.36 7.76001 153.68 7.76001C154.56 7.76001 155.427 7.86668 156.28 8.08001C157.133 8.28001 157.887 8.58668 158.54 9.00001L157.54 11.46C156.887 11.0867 156.233 10.8133 155.58 10.64C154.927 10.4533 154.287 10.36 153.66 10.36C153.033 10.36 152.52 10.4333 152.12 10.58C151.72 10.7267 151.433 10.92 151.26 11.16C151.087 11.3867 151 11.6533 151 11.96C151 12.32 151.147 12.6133 151.44 12.84C151.733 13.0533 152.12 13.2267 152.6 13.36C153.08 13.4933 153.607 13.6267 154.18 13.76C154.767 13.8933 155.347 14.0467 155.92 14.22C156.507 14.3933 157.04 14.6267 157.52 14.92C158 15.2133 158.387 15.6 158.68 16.08C158.987 16.56 159.14 17.1667 159.14 17.9C159.14 18.6867 158.92 19.4067 158.48 20.06C158.04 20.7133 157.38 21.24 156.5 21.64C155.633 22.04 154.533 22.24 153.2 22.24Z"></path>
<defs>
<linearGradient gradientUnits="userSpaceOnUse" y2="29.2516" x2="33" y1="1.75159" x1="15" id="paint0_linear_72_7404">
<stop stop-color="#0095FF"></stop>
<stop stop-color="#1512C0" offset="0.5"></stop>
<stop stop-color="#BF00FF" offset="1"></stop>
</linearGradient>
</defs>
</svg>
