<svg xmlns="http://www.w3.org/2000/svg" xmlns:xlink="http://www.w3.org/1999/xlink" version="1.1" x="0px" y="0px" viewBox="0 0 75.84 76.5" enable-background="new 0 0 75.84 61.2" xml:space="preserve"><path fill-rule="evenodd" clip-rule="evenodd" fill="#000000" d="M37.907,52.62c-0.057,0.379-2.697,0.363-3.324,1.022  C34.666,52.276,36.498,52.659,37.907,52.62z"/><path fill-rule="evenodd" clip-rule="evenodd" d="M45.831,8.397c0.7,6.775,1.174,13.657,2.683,19.781  c-0.354,0.839,0,1.598-0.382,2.713c-8.954-0.18-22.281,3.466-32.464,2.302c-0.363-7.58-2.499-14.689-2.044-22.24  C22.984,8.967,36.812,9.061,45.831,8.397z M16.435,28.848c0.003,1.518-0.312,2.132,0.255,3.322  c9.452-0.919,22.286-1.444,30.419-2.812c-0.345-4.928-2.304-12.468-2.046-19.684c-3.909-0.152-7.555,0.02-11.246,0.256  c-2.543,0.163-5.155,0.547-7.759,0.673c-3.998,0.193-8.195,0.26-11.668,1.628c0.555,6.272,1.508,10.861,1.789,16.359  c6.199-4.453,12.265-11.253,19.173-15.848C29.034,18.1,23.324,24.063,16.435,28.848z"/><path fill-rule="evenodd" clip-rule="evenodd" d="M36.884,21.945c-1.722,2.88-5.804,5.612-8.691,8.18  C30.622,26.929,34.046,24.73,36.884,21.945z"/><path fill-rule="evenodd" clip-rule="evenodd" d="M48.159,5.367c1.368,6.628,1.782,14.727,2.785,21.435  c0.139,0.933-0.267,0,0.388,2.53c-0.333,2.196,0.459,5.668,0.124,2.327c2.251,2.102,5.963,3.381,8.264,4.662  c3.336,1.858,5.282,3.508,8.606,5.051c2.382,1.106,4.632,1.669,6.391,3.58c-0.358,1.26-0.26,2.977-0.767,4.089  c-9.172,1.986-16.768,3.559-27.352,5.113c-4.529,0.665-7.719,1.987-11.042,0.807c-0.929-0.246-0.857-0.274-1.665-0.399  c-2.96-0.636-4.665-2.405-6.976-4.241c-2.123-1.688-5.012-3.008-6.901-4.858c-0.315-0.308-0.728-0.68-0.967-1.02  c-1.293-1.824-3.402-2.99-4.657-4.859c0.625-1.314-1.607-1.915-0.255-3.323c-4.907-0.652-8.939-1.301-13.037,0.511  c2.009-3.254,8.09-2.628,12.27-1.789c-1.249-8.211-2.978-17.905-2.813-27.352c2.367-0.31,5.024-0.553,7.693-0.576  C28.045,6.968,38.778,6.005,48.159,5.367z M11.322,9.165c0.757,8.83,1.479,16.115,2.813,24.284c0.474,1.388,0.651,1.209,1.022,1.278  c11.638-0.26,25.29,0.196,35.276-3.578c-1.083-8.483-2.044-16.342-3.323-24.285C34.646,7.563,23.494,8.412,11.322,9.165z   M50.177,33.448c0.41,1.007-1.103,0.088-1.021,0.768c1.426,0.021,1.921,0.974,2.812,1.533c3.6,1.564,7.762,3.632,10.225,6.135  c-1.577,0.526-3.403,0.296-5.625,1.277c-9.027-0.05-17.697,2.1-25.05,2.301c-3.187-2.606-7.129-4.459-9.202-8.18  c0.399-0.479,0.89,0.26,1.022-0.766c-2.274,0.36-3.638-0.959-5.112,0c1.03,3.57,5.815,4.198,7.157,6.645  c3.584,2.28,5.592,4.294,8.436,6.392c3.363-0.386,6.69-0.808,10.48-0.768c-0.287-1.418-2.295-1.113-1.79-3.323  c4.137-0.975,9.399-0.824,13.55-1.789c3.517,3.662,10.483,2.159,15.081,0.767C63.376,41.552,57.522,36.754,50.177,33.448z   M35.862,35.749c4.041,1.215,9.849-0.198,13.037-1.533C44.648,35.221,40.446,35.862,35.862,35.749z M47.109,37.027  c1.372,0.253,4.051,0.544,5.368,0C50.456,36.23,48.591,34.677,47.109,37.027z M30.494,36.26c-0.596,0-1.192,0-1.789,0  c-2.694,0.529,1.037-0.009,2.812,0c1.307,0.008,2.678,0.232,3.579,0.257C34.409,35.303,32.056,36.06,30.494,36.26z M37.907,37.538  c0.753,0.983,4.742,0.755,5.112,0c0.599,0.349,2.744,0.478,3.323,0c-0.374-0.222-0.811-0.383-0.767-1.021  C42.98,36.616,40.701,37.076,37.907,37.538z M31.772,37.794c2.732,1.118,4.902,3.377,8.181,2.557  C38.062,38.304,35.624,36.675,31.772,37.794z M26.149,38.816c-0.343-0.168-0.477-0.547-0.512-1.022c-0.859,0.266-2.874-0.47-2.301,0  C23.918,38.329,24.991,39.706,26.149,38.816z M31.261,39.071c-0.898-1.694-2.737-1.512-4.857-1.533  C26.562,39.528,30.024,38.936,31.261,39.071z M49.41,38.305c1.079,1.052,3.066,0.409,4.347,0.767  c0.123,1.117-0.789,0.545-0.257,1.534c0.951,0.636,2.135-0.315,3.066-0.511c-0.554,0.043-0.113-0.907-0.255-1.278  C54.269,37.605,51.452,37.699,49.41,38.305z M44.298,38.562c0.204,1.867,2.634,0.613,4.09,0.767  C47.984,37.658,45.866,38.602,44.298,38.562z M40.208,39.071c1.014,1.239,2.792,0.668,4.09,0.767  c0.271-0.952-0.959-0.403-0.768-1.276C42.302,38.609,41.098,38.683,40.208,39.071z M29.471,51.086  c2.09,1.612,5.738,3.798,4.687,1.346c-1.124-3.007-5.411-4.831-8.265-6.713c-2.915-1.924-6.613-5.734-9.043-7.8  c-0.326-0.015,0.509,1.337,0.096,1.409C20.353,44.016,25.006,47.457,29.471,51.086z M29.728,40.095  c0.921,0.871,3.857,1.078,5.368,0.511C33.809,39.411,30.829,39.062,29.728,40.095z M46.343,40.605  c0.558-0.046,0.813,0.209,0.767,0.767c-0.931-0.437-2.808-1.273-4.09-0.51c0.47,1.497,4.486,2.204,4.856,0.767  c1.661,0.023,3.401,0.417,4.602-0.512C50.662,40.192,48.478,39.444,46.343,40.605z M26.404,40.095  c-0.316,0.826,0.827,0.195,0.511,1.022c0.667-0.1,1.403-0.132,1.79-0.512 M33.306,41.884c1.685,2.52,7.236,1.331,10.225,0.768  c-1.27-1.925-3.535-1.92-5.878-1.534c0.719,0.474,1.826,0.56,2.043,1.534c-2.053-0.6-2.283-1.142-4.344-1.789  C35.424,41.955,33.373,40.928,33.306,41.884z M33.817,42.906c-1.779-0.352-2.774-1.485-5.112-1.277  C29.566,42.811,32.561,43.712,33.817,42.906z M54.778,44.952c-3.302,0.258-7.72,0.175-10.736,1.277  c1.39,0.4,1.657,1.922,3.067,2.301c3.69-0.958,8.047-0.276,11.546-1.69C57.456,46.707,56.857,45.376,54.778,44.952z M36.288,51.433  c4.641,1.899,9.96-0.096,15.044-0.666c-2.729,0.999-9.852,1.531-7.522,2.197c7.297-0.298,17.175-1.863,23.833-3.461  c2.15-0.516,6.456-0.2,5.541-2.506c-0.054-0.287,0.144-1.042-0.083-1.155C61.657,48.794,47.139,49.77,36.288,51.433z"/><text x="0" y="76.2" fill="#000000" font-size="5px" font-weight="bold" font-family="'Helvetica Neue', Helvetica, Arial-Unicode, Arial, Sans-serif">Created by James Cottell</text><text x="0" y="81.2" fill="#000000" font-size="5px" font-weight="bold" font-family="'Helvetica Neue', Helvetica, Arial-Unicode, Arial, Sans-serif">from the Noun Project</text></svg>