<?xml version="1.0" standalone="no"?>
<!DOCTYPE svg PUBLIC "-//W3C//DTD SVG 20010904//EN"
 "http://www.w3.org/TR/2001/REC-SVG-20010904/DTD/svg10.dtd">
<svg version="1.0" xmlns="http://www.w3.org/2000/svg"
 width="512.000000pt" height="512.000000pt" viewBox="0 0 512.000000 512.000000"
 preserveAspectRatio="xMidYMid meet">

<g transform="translate(0.000000,512.000000) scale(0.100000,-0.100000)"
fill="#ffffff" stroke="none">
<path d="M2161 5094 c-34 -17 -62 -41 -79 -67 -25 -37 -27 -51 -30 -152 -3
-98 -1 -118 17 -153 24 -48 68 -86 116 -102 l35 -12 -2 -440 -3 -441 -72 -23
c-184 -60 -324 -145 -367 -225 -34 -61 -45 -156 -26 -214 30 -91 138 -165 243
-165 l57 0 0 -780 c0 -642 -2 -780 -13 -780 -8 0 -99 18 -203 40 -104 22 -201
40 -216 40 -15 0 -40 -11 -55 -24 -27 -24 -28 -27 -32 -150 -3 -109 -5 -126
-20 -126 -9 0 -74 9 -145 20 -214 33 -186 43 -358 -127 -82 -82 -152 -159
-155 -172 -4 -16 16 -73 67 -190 40 -91 74 -171 77 -177 2 -7 -23 -31 -57 -55
-34 -24 -68 -55 -76 -70 -11 -22 -14 -78 -14 -253 0 -239 4 -266 47 -285 30
-14 3279 -16 3316 -2 36 14 57 39 57 69 0 38 -345 813 -371 835 -12 9 -41 22
-65 28 -24 6 -44 14 -44 17 0 2 29 74 65 158 36 85 65 166 65 181 0 21 -30 57
-141 169 -78 79 -154 148 -169 154 -23 9 -69 6 -242 -19 -117 -18 -222 -34
-234 -36 -17 -4 -25 5 -45 46 -13 28 -36 62 -53 75 -26 22 -35 24 -82 18 l-54
-6 0 701 0 701 50 0 c126 0 240 118 240 250 0 56 -26 132 -57 165 -60 65 -222
154 -345 190 l-58 16 0 445 0 444 38 15 c90 38 131 110 132 230 0 100 -13 146
-53 192 -60 69 -80 73 -373 73 l-260 0 -53 -26z m557 -156 c16 -16 15 -119 -1
-141 -11 -16 -35 -17 -252 -15 l-240 3 -3 74 c-2 53 1 77 10 82 22 14 472 11
486 -3z m-160 -755 l-3 -428 -82 -3 -83 -3 0 431 0 430 85 0 85 0 -2 -427z
m182 -636 c164 -56 270 -127 270 -179 0 -24 -18 -59 -39 -75 -27 -21 -63 -15
-121 20 -134 80 -270 113 -425 104 -142 -9 -243 -40 -360 -111 -73 -44 -98
-45 -136 -7 -59 59 -31 107 98 174 162 82 262 105 468 106 145 1 153 0 245
-32z m-127 -323 c34 -9 74 -22 89 -30 l28 -15 0 -758 0 -758 -85 -14 -85 -15
0 592 c0 386 -4 602 -10 620 -23 58 -92 73 -135 29 l-25 -24 0 -624 0 -625
-67 -12 c-38 -6 -76 -14 -85 -17 -17 -4 -18 39 -18 805 l0 810 43 16 c98 38
250 46 350 20z m387 -1826 c118 -245 188 -413 176 -420 -6 -3 -164 -68 -350
-143 l-339 -137 -161 161 -161 161 -230 2 -230 3 -3 203 c-2 159 0 202 10 202
7 0 76 -13 153 -30 77 -16 158 -30 179 -30 39 0 753 131 811 149 75 23 76 23
145 -121z m640 -53 l94 -94 -58 -136 c-32 -74 -61 -135 -63 -135 -17 0 -248
42 -252 46 -5 5 -160 364 -158 365 5 2 305 47 322 48 13 1 54 -32 115 -94z
m-2257 -174 c64 -10 120 -20 122 -23 3 -2 8 -32 11 -66 6 -55 5 -62 -11 -62
-9 0 -93 -55 -186 -122 -93 -68 -172 -122 -175 -121 -4 1 -29 53 -56 115 l-48
112 92 93 c56 57 101 93 113 93 11 0 73 -9 138 -19z m859 -468 l148 -148 0
-192 0 -193 -685 0 -685 0 0 149 0 149 268 191 267 191 270 0 270 0 147 -147z
m1267 118 c86 -16 181 -32 212 -36 l56 -6 133 -297 c73 -163 135 -300 137
-304 2 -5 -331 -8 -741 -8 l-746 0 0 184 0 184 113 46 c61 25 231 95 377 155
146 60 274 110 284 110 11 1 90 -12 175 -28z"/>
</g>
</svg>
